<svg xmlns="http://www.w3.org/2000/svg" version="1.1" xmlns:xlink="http://www.w3.org/1999/xlink" width="512" height="512" x="0" y="0" viewBox="0 0 32 32" style="enable-background:new 0 0 512 512" xml:space="preserve" class=""><g><path d="M23.05 8.93c1.64 0 2.98-1.34 2.98-2.98-.11-3.92-5.85-3.92-5.95 0 0 .51.14.98.36 1.4-.49.64-1.03 1.41-1.5 2.28-1.52-.93-3.59-1.26-5.36-.78-.45-1.13-1.15-2.29-2.06-3.46C12.64 3.5 11.12.94 8.92 1c-4.72.31-3.35 7.25 1.13 5.73.61.8 1.25 1.8 1.68 2.87a7.102 7.102 0 0 0-3.55 6.15v10.73c.1 3.53 5.28 3.55 5.38 0v-1.22c0-.21.38-.2.38 0v3c.09 3.65 5.45 3.66 5.55 0 0-.33.26-.59.59-.59 1.29 0 2.34-1.06 2.34-2.35v-9.57c0-1.86-.72-3.55-1.89-4.82.42-.84.92-1.61 1.39-2.23.35.15.73.23 1.13.23zm0-3.95c1.28.01 1.28 1.94 0 1.95-1.27-.03-1.28-1.93 0-1.95zm-15.1-1c0-1.28 1.94-1.28 1.94 0 0 1.27-1.94 1.27-1.94 0zm7.37 14.23c-2.01 0-3.69-1.51-3.91-3.5-.13-1.3 1.85-1.52 2-.22.1.98.93 1.71 1.91 1.71s1.8-.73 1.91-1.71c.06-.55.56-.94 1.1-.88a1 1 0 0 1 .89 1.1 3.922 3.922 0 0 1-3.9 3.5z" fill="#ffffff" opacity="1" data-original="#000000" class=""></path></g></svg>