<svg xmlns="http://www.w3.org/2000/svg" version="1.1" xmlns:xlink="http://www.w3.org/1999/xlink" width="512" height="512" x="0" y="0" viewBox="0 0 100 100" style="enable-background:new 0 0 512 512" xml:space="preserve" class=""><g><path d="M50 4.141C24.713 4.141 4.141 24.713 4.141 50S24.713 95.859 50 95.859 95.859 75.287 95.859 50 75.287 4.141 50 4.141zm-29.849 32.8c.554 0 1.075.135 1.538.369a3.4 3.4 0 0 1 1.193 2.589 3.413 3.413 0 0 1-3.412 3.412 3.398 3.398 0 0 1-1.538-.369 3.405 3.405 0 0 1-1.193-2.589 3.413 3.413 0 0 1 3.412-3.412zm.681 26.063a4.93 4.93 0 0 1-2.386-.613 4.945 4.945 0 0 1 5.453-8.21 4.945 4.945 0 0 1-3.067 8.823zm7.037-21.431c-.196 0-.383-.035-.558-.097a1.674 1.674 0 0 1 1.797-2.7 1.674 1.674 0 0 1-1.239 2.797zm0-7.349a7.006 7.006 0 0 1-3.558-.966 7.037 7.037 0 0 1 7.797-11.687 7.037 7.037 0 0 1-4.239 12.653zm15.435-9.267c-.608 0-1.179-.15-1.684-.411a3.672 3.672 0 0 1 4.049-6.067 3.672 3.672 0 0 1-2.366 6.478zm41.993 39.768c-.196 0-.383-.035-.558-.097a1.675 1.675 0 0 1 1.797-2.7 1.674 1.674 0 0 1-1.239 2.797zm0-7.833c-.405 0-.788-.092-1.133-.252a2.686 2.686 0 0 1-.88-1.988 2.694 2.694 0 0 1 3.827-2.442c.54.493.88 1.199.88 1.988a2.694 2.694 0 0 1-2.694 2.694z" fill="#ffffff" opacity="1" data-original="#000000" class=""></path></g></svg>